<svg xmlns="http://www.w3.org/2000/svg" viewBox="0 0 307.3 208.13"><defs><style>.cls-1{fill:red;}.cls-2{font-size:37.59px;font-family:AvrileSans-Bold, Avrile Sans;font-weight:700;}.cls-3{letter-spacing:0em;}.cls-4{fill:#fff;}</style></defs><g id="Layer_2" data-name="Layer 2"><g id="Layer_1-2" data-name="Layer 1"><g id="_1_x_1_Logo" data-name="1 x 1 Logo"><g id="Logogram"><path d="M226,22.17S197.08,0,153.33,0c-45.68,0-74,22.32-74,22.32s-.28,26.27,5.1,45.57c3.65,13.09,9.9,27.76,17.42,38.28,19.08,26.69,50.78,44.34,50.78,44.34l12.19-7.9c10.27-7.3,19.65-14.69,26.29-21.83l5.54-6.38c9.74-10.75,18.43-27.2,22.16-40.22l2.46-9-3.42-3.31L207,54.37l-1.84,8.48a61.16,61.16,0,0,1-2,6.87A104.73,104.73,0,0,1,191,95.26,104.48,104.48,0,0,1,176,112.64c-3.55,3.27-11,9.57-15,12.76l-8.31,5.71-10.24-6.88c-8.21-6.81-18.92-15.93-27.12-27.38-6.24-8.69-9.62-17.32-12.77-25.1-2.84-7-5.48-20.63-6.8-32.75l-.67-8,10.41-5.12c41.25-17.31,82.37-8.65,107.81,7.22l12,7.18Z"/><path class="cls-1" d="M224.43,48.36s-23.11-19.58-55.92-24a122,122,0,0,0-43.2,2.14,69.65,69.65,0,0,0,.31,9.19,49,49,0,0,0,1.26,7s22.48-6.11,44.4-1.38c30.67,6.61,50,23.93,50,23.93A78.24,78.24,0,0,0,223,57.05C223.81,53,224.43,48.36,224.43,48.36Z"/><path d="M118.15,28.34s-5,1.59-8.4,3.1-7.3,3.53-7.3,3.53,1.7,17.13,4,26c4.87,18.64,9.82,28.07,25.36,45,8.39,9.15,20.65,16.7,20.65,16.7A122.15,122.15,0,0,0,178.1,100.8a91.46,91.46,0,0,0,15.69-25.26L187,71l-7.49-3s-7.93,14.39-13.14,21.25c-5,6.55-13.89,13.29-13.89,13.29a85.7,85.7,0,0,1-19.4-20.72c-7.64-11.3-10.89-24-12.65-33.69C118.92,40,118.15,28.34,118.15,28.34Z"/><path class="cls-1" d="M199,58.82s-10.61-8-33.84-11.59c-18.3-2.85-37.36,2.44-37.36,2.44s1,5.38,1.84,8.22a80.06,80.06,0,0,0,3,7.81s6.89-2,10.66-2.6c8.82-1.34,13.76-.72,21,.59,18.07,3.25,29.37,11.94,29.37,11.94,1-2.36,1.45-3.37,3-7.91A65.79,65.79,0,0,0,199,58.82Z"/></g><text class="cls-2" transform="translate(0 193.5) scale(1.06 1)">GAR<tspan class="cls-3" x="74.47" y="0">D</tspan><tspan x="100.55" y="0">A</tspan></text><polygon id="Redbar" class="cls-1" points="131.44 166.56 307.3 166.66 307.29 193.53 142.54 193.49 131.44 166.56"/><g id="Organizer"><path class="cls-4" d="M158.36,187.25q-2.25,2.75-7.11,2.75c-3.22,0-5.59-.92-7.09-2.75A11.15,11.15,0,0,1,141.9,180a11,11,0,0,1,2.26-7.23c1.5-1.83,3.88-2.74,7.12-2.74s5.6.91,7.09,2.74a12.91,12.91,0,0,1,0,14.52Zm-10.5-2.45a4.18,4.18,0,0,0,6.79,0,11.75,11.75,0,0,0,0-9.62,3.6,3.6,0,0,0-3.37-1.76,3.66,3.66,0,0,0-3.43,1.76,9.56,9.56,0,0,0-1,4.8A9.45,9.45,0,0,0,147.86,184.8Z"/><path class="cls-4" d="M178.22,176.12a5.11,5.11,0,0,1-1,3.25,6.36,6.36,0,0,1-2.46,1.89l5.67,8.47h-5.24l-4.37-7.46h-1.76v7.46h-4.69V170.29h6Q178.26,170.26,178.22,176.12Zm-9.14-2.45v5.25h1.15c2.16,0,3.26-.91,3.28-2.69a2.3,2.3,0,0,0-.8-2,4.27,4.27,0,0,0-2.5-.58Z"/><path class="cls-4" d="M198.16,178.81v10.07A22.63,22.63,0,0,1,191,190a8.91,8.91,0,0,1-6.75-2.56q-2.46-2.55-2.46-7.46a10,10,0,0,1,2.62-7.27Q187,170,191.94,170a15.14,15.14,0,0,1,3.23.34,15.32,15.32,0,0,1,2.79.86l-1.51,3.29a15,15,0,0,0-2.12-.75,9,9,0,0,0-2.39-.31,4.65,4.65,0,0,0-4,1.81,7.91,7.91,0,0,0-1.33,4.8,8.73,8.73,0,0,0,1.14,4.69,3.91,3.91,0,0,0,3.57,1.82,11.24,11.24,0,0,0,1.31-.08c.42-.06.79-.12,1.1-.19v-4.06h-3.56v-3.43Z"/><path class="cls-4" d="M213.18,185.1H206.5l-1.22,4.63h-5.09l6.6-19.52h6l6.62,19.52h-5.06Zm-2.37-8a34.81,34.81,0,0,1-1-3.89,33.17,33.17,0,0,1-.95,3.89l-1.33,4.52h4.63Z"/><path class="cls-4" d="M233.53,189.73,225.74,175h-.11c.07,1.85.16,3.7.26,5.55v9.15h-4.17V170.29h6l7.75,14.57h.09c-.08-1.8-.14-3.59-.2-5.37v-9.2h4.19v19.44Z"/><path class="cls-4" d="M245.16,189.73V170.29h4.69v19.44Z"/><path class="cls-4" d="M253.84,189.73v-2.67l8.86-13.36h-8.63v-3.41H268.4V173l-8.86,13.37h9.09v3.4Z"/><path class="cls-4" d="M271.58,189.73V170.29h11.35v3.38h-6.66v4.27h6.19v3.38h-6.19v5h6.66v3.4Z"/><path class="cls-4" d="M300.49,176.12a5.11,5.11,0,0,1-1,3.25,6.36,6.36,0,0,1-2.46,1.89l5.67,8.47h-5.24l-4.37-7.46h-1.76v7.46h-4.69V170.29h6Q300.53,170.26,300.49,176.12Zm-9.14-2.45v5.25h1.16c2.16,0,3.25-.91,3.27-2.69a2.3,2.3,0,0,0-.8-2,4.25,4.25,0,0,0-2.5-.58Z"/></g></g></g></g></svg>