<svg xmlns="http://www.w3.org/2000/svg" viewBox="0 0 66.74 68.5"><defs><style>.cls-1{fill:red;}</style></defs><g id="Layer_2" data-name="Layer 2"><g id="Layer_1-2" data-name="Layer 1"><g id="Horizontal_Logo" data-name="Horizontal Logo"><g id="Logogram"><path d="M66.74,10.09A58.35,58.35,0,0,0,33.68,0C12.89,0,0,10.16,0,10.16s-.13,12,2.32,20.74a59,59,0,0,0,7.93,17.42C18.93,60.47,33.37,68.5,33.37,68.5l5.55-3.59a80.42,80.42,0,0,0,12-9.94l2.52-2.9A50.89,50.89,0,0,0,63.49,33.76l1.12-4.09-1.56-1.51L58.1,24.75l-.84,3.86a27.83,27.83,0,0,1-.9,3.12A47.73,47.73,0,0,1,50.8,43.36,47.4,47.4,0,0,1,44,51.27c-1.62,1.49-5,4.35-6.84,5.81l-3.79,2.6-4.66-3.14C25,53.45,20.1,49.29,16.37,44.08a51.13,51.13,0,0,1-5.81-11.42c-1.3-3.2-2.5-9.39-3.1-14.91l-.3-3.63,4.74-2.33C30.67,3.91,49.39,7.85,61,15.08l5.47,3.26Z"/><path class="cls-1" d="M66,22a54.75,54.75,0,0,0-25.45-11,55.7,55.7,0,0,0-19.67,1,32,32,0,0,0,.15,4.18,21.56,21.56,0,0,0,.57,3.18s10.23-2.78,20.21-.63a54,54,0,0,1,22.76,10.9c-.09.47.31-1.13.8-3.7C65.76,24.13,66,22,66,22Z"/><path d="M17.67,12.9s-2.26.72-3.82,1.41-3.33,1.61-3.33,1.61a106.51,106.51,0,0,0,1.83,11.84c2.22,8.49,4.48,12.78,11.55,20.49a51.63,51.63,0,0,0,9.4,7.6A55.7,55.7,0,0,0,45,45.88a41.86,41.86,0,0,0,7.15-11.5L49,32.32l-3.41-1.38a107.46,107.46,0,0,1-6,9.67,39,39,0,0,1-6.32,6,38.83,38.83,0,0,1-8.83-9.43c-3.48-5.14-5-10.95-5.76-15.33C18,18.22,17.67,12.9,17.67,12.9Z"/><path class="cls-1" d="M54.47,26.77s-4.83-3.62-15.4-5.27c-8.33-1.3-17,1.11-17,1.11s.44,2.45.84,3.74a36.73,36.73,0,0,0,1.38,3.55s3.14-.92,4.85-1.18a25,25,0,0,1,9.56.27,33.41,33.41,0,0,1,13.36,5.43,37.58,37.58,0,0,0,1.39-3.6A29.77,29.77,0,0,0,54.47,26.77Z"/></g></g></g></g></svg>