<svg xmlns="http://www.w3.org/2000/svg" viewBox="0 0 516.24 68.51"><defs><style>.cls-1{font-size:53.37px;font-family:AvrileSans-Bold, Avrile Sans;font-weight:700;}.cls-2{letter-spacing:0em;}.cls-3{letter-spacing:0em;}.cls-4{fill:red;}.cls-5{fill:#fff;}</style></defs><g id="Layer_2" data-name="Layer 2"><g id="Layer_1-2" data-name="Layer 1"><g id="Horizontal_Logo" data-name="Horizontal Logo"><text class="cls-1" transform="translate(79.97 47.74) scale(1.06 1)">GAR<tspan class="cls-2" x="105.72" y="0">D</tspan><tspan class="cls-3" x="142.75" y="0">A</tspan></text><polygon id="Redbar" class="cls-4" points="266.57 9.5 516.24 9.64 516.24 47.79 282.34 47.73 266.57 9.5"/><g id="Organizer"><path class="cls-5" d="M304.79,38.87q-3.19,3.91-10.09,3.91t-10.07-3.91q-3.19-3.9-3.2-10.35t3.2-10.26q3.21-3.89,10.11-3.89t10.07,3.89c2.11,2.58,3.16,6,3.16,10.29S306.91,36.27,304.79,38.87Zm-14.9-3.48a5.92,5.92,0,0,0,9.64,0A13.48,13.48,0,0,0,301,28.55a13.55,13.55,0,0,0-1.46-6.82,5.12,5.12,0,0,0-4.79-2.49,5.19,5.19,0,0,0-4.87,2.49,13.55,13.55,0,0,0-1.46,6.82A13.36,13.36,0,0,0,289.89,35.39Z"/><path class="cls-5" d="M333,23.07a7.19,7.19,0,0,1-1.39,4.61,9.1,9.1,0,0,1-3.5,2.69l8.06,12h-7.44l-6.2-10.59H320V42.39h-6.66V14.8h8.55Q333,14.76,333,23.07Zm-13-3.48v7.46h1.64c3.07,0,4.62-1.3,4.65-3.83a3.25,3.25,0,0,0-1.13-2.8,6.11,6.11,0,0,0-3.56-.83Z"/><path class="cls-5" d="M361.3,26.89v14.3a32.22,32.22,0,0,1-10.23,1.59q-6.07,0-9.57-3.64T338,28.55q0-6.48,3.71-10.31t10.75-3.83a21.77,21.77,0,0,1,4.58.48,22.61,22.61,0,0,1,4,1.22l-2.13,4.68a21,21,0,0,0-3-1.07,13,13,0,0,0-3.39-.44,6.63,6.63,0,0,0-5.71,2.57,11.25,11.25,0,0,0-1.89,6.82,12.36,12.36,0,0,0,1.62,6.65,5.56,5.56,0,0,0,5.07,2.59,14,14,0,0,0,1.85-.12q.91-.12,1.56-.27V31.76h-5.05V26.89Z"/><path class="cls-5" d="M382.63,35.82h-9.5l-1.72,6.57h-7.23l9.37-27.71h8.54l9.41,27.71h-7.19ZM379.26,24.5a51,51,0,0,1-1.4-5.53,50.35,50.35,0,0,1-1.36,5.53l-1.89,6.41h6.58Z"/><path class="cls-5" d="M411.51,42.39,400.46,21.52h-.17q.16,3.94.37,7.88v13h-5.91V14.8h8.54l11,20.67h.13q-.17-3.82-.29-7.61V14.8h6V42.39Z"/><path class="cls-5" d="M428,42.39V14.8h6.65V42.39Z"/><path class="cls-5" d="M440.35,42.39V38.6l12.57-19H440.68V14.8H461v3.78l-12.57,19h12.9v4.83Z"/><path class="cls-5" d="M465.54,42.39V14.8h16.1v4.79h-9.45v6.07H481v4.79h-8.8v7.11h9.45v4.83Z"/><path class="cls-5" d="M506.58,23.07a7.19,7.19,0,0,1-1.39,4.61,9.1,9.1,0,0,1-3.5,2.69l8.06,12h-7.44l-6.2-10.59H493.6V42.39h-6.66V14.8h8.55Q506.62,14.76,506.58,23.07Zm-13-3.48v7.46h1.64c3.07,0,4.62-1.3,4.65-3.83a3.25,3.25,0,0,0-1.13-2.8,6.11,6.11,0,0,0-3.56-.83Z"/></g><g id="Logogram"><path d="M66.74,10.09A58.35,58.35,0,0,0,33.68,0C12.89,0,0,10.16,0,10.16s-.13,12,2.32,20.74a59,59,0,0,0,7.93,17.42C18.93,60.47,33.37,68.5,33.37,68.5l5.55-3.59a80.42,80.42,0,0,0,12-9.94l2.52-2.9A50.89,50.89,0,0,0,63.49,33.76l1.12-4.09-1.56-1.51L58.1,24.75l-.84,3.86a27.83,27.83,0,0,1-.9,3.12A47.73,47.73,0,0,1,50.8,43.36,47.4,47.4,0,0,1,44,51.27c-1.62,1.49-5,4.35-6.84,5.81l-3.79,2.6-4.66-3.14C25,53.45,20.1,49.29,16.37,44.08a51.13,51.13,0,0,1-5.81-11.42c-1.3-3.2-2.5-9.39-3.1-14.91l-.3-3.63,4.74-2.33C30.67,3.91,49.39,7.85,61,15.08l5.47,3.26Z"/><path class="cls-4" d="M66,22a54.75,54.75,0,0,0-25.45-11,55.7,55.7,0,0,0-19.67,1,32,32,0,0,0,.15,4.18,21.56,21.56,0,0,0,.57,3.18s10.23-2.78,20.21-.63a54,54,0,0,1,22.76,10.9c-.09.47.31-1.13.8-3.7C65.76,24.13,66,22,66,22Z"/><path d="M17.67,12.9s-2.26.72-3.82,1.41-3.33,1.61-3.33,1.61a106.51,106.51,0,0,0,1.83,11.84c2.22,8.49,4.48,12.78,11.55,20.49a51.63,51.63,0,0,0,9.4,7.6A55.7,55.7,0,0,0,45,45.88a41.86,41.86,0,0,0,7.15-11.5L49,32.32l-3.41-1.38a107.46,107.46,0,0,1-6,9.67,39,39,0,0,1-6.32,6,38.83,38.83,0,0,1-8.83-9.43c-3.48-5.14-5-10.95-5.76-15.33C18,18.22,17.67,12.9,17.67,12.9Z"/><path class="cls-4" d="M54.47,26.77s-4.83-3.62-15.4-5.27c-8.33-1.3-17,1.11-17,1.11s.44,2.45.84,3.74a36.73,36.73,0,0,0,1.38,3.55s3.14-.92,4.85-1.18a25,25,0,0,1,9.56.27,33.41,33.41,0,0,1,13.36,5.43,37.58,37.58,0,0,0,1.39-3.6A29.77,29.77,0,0,0,54.47,26.77Z"/></g></g></g></g></svg>